<?xml version="1.0" standalone="no"?>
<!DOCTYPE svg PUBLIC "-//W3C//DTD SVG 20010904//EN"
 "http://www.w3.org/TR/2001/REC-SVG-20010904/DTD/svg10.dtd">
<svg version="1.0" xmlns="http://www.w3.org/2000/svg"
 width="421.000000pt" height="421.000000pt" viewBox="0 0 421.000000 421.000000"
 preserveAspectRatio="xMidYMid meet">
<metadata>
Created by potrace 1.14, written by Peter Selinger 2001-2017
</metadata>
<g transform="translate(0.000000,421.000000) scale(0.100000,-0.100000)"
fill="#000000" stroke="none">
<path d="M2330 3877 c-73 -70 -213 -157 -228 -142 -4 3 -7 14 -7 23 -1 9 -2
29 -3 43 -1 14 -8 33 -14 42 -12 16 -17 14 -58 -14 -42 -28 -190 -107 -207
-111 -23 -4 -198 -90 -244 -120 -93 -61 -219 -179 -219 -205 0 -7 -4 -13 -9
-13 -5 0 -12 -12 -16 -27 -7 -26 -9 -24 -30 32 -13 33 -26 59 -29 58 -3 -2 -9
-3 -14 -3 -4 0 -23 -30 -42 -67 -19 -38 -39 -71 -45 -75 -5 -4 -6 -8 -1 -8 5
0 2 -8 -6 -17 -14 -17 -61 -108 -64 -125 -1 -5 -2 -9 -4 -10 -3 -5 -10 -40
-17 -88 -12 -81 -6 -269 12 -400 9 -61 16 -108 25 -151 5 -26 16 -95 25 -154
9 -59 23 -125 32 -147 17 -44 14 -54 -14 -40 -40 22 -71 -32 -71 -120 1 -66
28 -204 51 -260 l14 -34 -76 -1 c-42 -1 -86 -2 -99 -2 -13 -1 -35 -13 -49 -27
l-26 -26 7 -176 c4 -98 9 -202 11 -233 27 -514 27 -500 13 -516 -17 -21 -112
-199 -113 -213 -1 -3 -6 -15 -13 -27 -7 -13 -10 -23 -6 -23 3 0 1 -7 -6 -15
-7 -8 -9 -15 -6 -15 4 0 2 -9 -4 -21 -7 -11 -14 -33 -17 -47 -8 -42 -11 -57
-13 -57 -1 0 -4 -12 -6 -26 l-4 -27 157 -5 c199 -7 2212 -7 2393 0 74 3 138 8
142 12 18 17 -66 273 -128 391 l-36 69 6 113 c4 62 9 154 11 203 2 50 7 135
10 190 8 146 18 325 19 365 2 39 -14 79 -39 100 -10 9 -45 13 -105 12 -87 0
-89 1 -86 21 3 12 5 23 7 25 1 1 3 7 4 12 1 6 4 12 5 15 3 6 3 5 15 60 4 22
10 47 12 55 10 46 15 133 9 164 -9 50 -41 78 -73 65 -33 -12 -35 -12 -24 9 5
9 9 19 9 22 1 3 3 12 6 20 16 51 26 90 31 130 3 25 8 56 10 70 2 14 7 52 10
85 4 33 9 74 11 90 3 17 7 98 10 180 6 154 -2 219 -42 315 -8 19 -15 37 -16
40 0 3 -22 48 -49 100 -59 117 -153 263 -162 254 -4 -4 -7 -37 -7 -73 l-1 -66
-38 44 c-20 24 -48 65 -61 90 -36 68 -116 202 -139 231 l-20 25 -10 -28 c-6
-15 -13 -39 -15 -53 -3 -15 -7 -28 -10 -31 -2 -2 -18 40 -36 94 -58 179 -71
193 -108 121 -15 -31 -22 -37 -23 -23 -1 11 -2 35 -3 52 -3 52 -17 57 -56 20z"/>
</g>
</svg>
